# xmcd
#
# Track frame offsets:
#	150
#	11800
#	34245
#	58345
#	87782
#	106275
#	133962
#	161317
#	183945
#	196800
#	221397
#	249012
#
# Disc length: 3720 seconds
#
# Revision: 4
# Processed by: cddbd v1.5PL3 Copyright (c) Steve Scherf et al.
# Submitted via: CDex 1.50Beta5
#
DISCID=9b0e860c
DTITLE=今井美樹 - Moment Disc 1
DYEAR=1998
DGENRE=JPop
TTITLE0=PRIDE
TTITLE1=LAST JUNCTION
TTITLE2=I CAN’T STOP LOVIN’ U
TTITLE3=Sunny Sunday
TTITLE4=No 1
TTITLE5=去年は、8月だった
TTITLE6=Miss You
TTITLE7=半袖
TTITLE8=P.S.I LOVE YOU
TTITLE9=OVER THE RAINBOW
TTITLE10=アラビアン・ナイト
TTITLE11=永遠のメモリー
EXTD=
EXTT0=
EXTT1=
EXTT2=
EXTT3=
EXTT4=
EXTT5=
EXTT6=
EXTT7=
EXTT8=
EXTT9=
EXTT10=
EXTT11=
PLAYORDER=
